# Blender 4.3.2
# www.blender.org
mtllib Wall.mtl
o Cube
v -6.000000 0.000000 0.500000
v -6.000000 12.000000 0.500000
v -6.000000 0.000000 -0.500000
v -6.000000 12.000000 -0.500000
v 6.000000 0.000000 0.500000
v 6.000000 12.000000 0.500000
v 6.000000 0.000000 -0.500000
v 6.000000 12.000000 -0.500000
vn -1.0000 -0.0000 -0.0000
vn 1.0000 -0.0000 -0.0000
vn -0.0000 -0.0000 1.0000
vn -0.0000 -1.0000 -0.0000
vn -0.0000 1.0000 -0.0000
vt 0.071429 0.071429
vt 0.071429 0.928571
vt -0.000000 0.928571
vt 0.000000 0.071429
vt 1.000000 0.071429
vt 1.000000 0.928571
vt 0.928571 0.928571
vt 0.928571 0.071429
vt 0.071429 -0.000000
vt 0.928571 0.000000
vt 0.928571 1.000000
vt 0.071429 1.000000
s 0
f 1/1/1 2/2/1 4/3/1 3/4/1
f 7/5/2 8/6/2 6/7/2 5/8/2
f 5/8/3 6/7/3 2/2/3 1/1/3
f 3/9/4 7/10/4 5/8/4 1/1/4
f 8/11/5 4/12/5 2/2/5 6/7/5
