# Blender 4.3.2
# www.blender.org
mtllib Wall2.mtl
o Cube
v -6.000000 0.000000 0.500000
v -6.000000 12.000000 0.500000
v -6.000000 0.000000 -0.500000
v -6.000000 12.000000 -0.500000
v 6.000000 0.000000 0.500000
v 6.000000 12.000000 0.500000
v 6.000000 0.000000 -0.500000
v 6.000000 12.000000 -0.500000
v 1.000000 0.000000 -0.500000
v -1.000000 0.000000 -0.500000
v -1.000000 12.000000 -0.500000
v 1.000000 12.000000 -0.500000
v -1.000000 0.000000 0.500000
v 1.000000 0.000000 0.500000
v 1.000000 12.000000 0.500000
v -1.000000 12.000000 0.500000
v -6.000000 3.000000 0.500000
v -6.000000 3.000000 -0.500000
v 6.000000 3.000000 -0.500000
v 6.000000 3.000000 0.500000
v -1.000000 3.000000 -0.500000
v 1.000000 3.000000 -0.500000
v 1.000000 3.000000 0.500000
v -1.000000 3.000000 0.500000
vn -0.0000 1.0000 -0.0000
vn -0.0000 -0.0000 1.0000
vn -0.0000 -1.0000 -0.0000
vn 1.0000 -0.0000 -0.0000
vn -1.0000 -0.0000 -0.0000
vt 0.571429 1.000000
vt 0.428571 1.000000
vt 0.428571 0.928571
vt 0.571429 0.928571
vt 0.071429 1.000000
vt 0.071429 0.928571
vt 0.071429 0.071429
vt 0.428571 0.071429
vt 0.428571 0.285714
vt 0.071429 0.285714
vt 0.071429 0.000000
vt 0.428571 0.000000
vt 0.571429 0.285714
vt 1.000000 0.928571
vt 0.928571 0.928571
vt 0.928571 0.285714
vt 1.000000 0.285714
vt 0.571429 0.071429
vt 0.928571 0.071429
vt 0.000000 0.928571
vt -0.000000 0.285714
vt 1.000000 0.071429
vt 0.928571 0.000000
vt 0.571429 0.000000
vt 0.428571 0.214286
vt 0.571429 0.214286
vt 0.500000 0.071429
vt 0.500000 0.285714
vt 0.500000 0.285714
vt -0.000000 0.071429
vt 0.928571 1.000000
s 0
f 12/1/1 11/2/1 16/3/1 15/4/1
f 4/5/1 2/6/1 16/3/1 11/2/1
f 1/7/2 13/8/2 24/9/2 17/10/2
f 3/11/3 10/12/3 13/8/3 1/7/3
f 2/6/2 17/10/2 24/9/2 16/3/2
f 15/4/2 16/3/2 24/9/2 23/13/2
f 8/14/4 6/15/4 20/16/4 19/17/4
f 23/13/2 14/18/2 5/19/2 20/16/2
f 2/6/5 4/20/5 18/21/5 17/10/5
f 7/22/4 19/17/4 20/16/4 5/19/4
f 7/23/3 5/19/3 14/18/3 9/24/3
f 24/9/3 21/25/3 22/26/3 23/13/3
f 13/8/4 10/27/4 21/28/4 24/9/4
f 9/27/5 14/18/5 23/13/5 22/29/5
f 1/7/5 17/10/5 18/21/5 3/30/5
f 8/31/1 12/1/1 15/4/1 6/15/1
f 6/15/2 15/4/2 23/13/2 20/16/2
